<svg width="17" height="13" viewBox="0 0 17 13" fill="currentColor" xmlns="http://www.w3.org/2000/svg">
<path d="M16.4001 0.199219C15.7761 0.569619 14.5241 1.07442 13.7881 1.22002C13.7665 1.22562 13.7489 1.23282 13.7281 1.23842C13.0777 0.596819 12.1865 0.199219 11.2001 0.199219C9.21215 0.199219 7.60015 1.81122 7.60015 3.79922C7.60015 3.90402 7.59135 4.09682 7.60015 4.19922C4.91775 4.19922 2.87615 2.79442 1.41215 0.999219C1.25295 1.39922 1.18335 2.03122 1.18335 2.62482C1.18335 3.74562 2.05935 4.84642 3.42335 5.52882C3.17215 5.59362 2.89535 5.64002 2.60735 5.64002C2.14255 5.64002 1.65055 5.51762 1.20015 5.14642C1.20015 5.16002 1.20015 5.17282 1.20015 5.18722C1.20015 6.75362 2.86255 7.82002 4.34095 8.11682C4.04095 8.29362 3.43615 8.31122 3.14095 8.31122C2.93295 8.31122 2.19695 8.21602 2.00015 8.17922C2.41135 9.46322 3.89455 10.1848 5.30815 10.2104C4.20255 11.0776 3.43535 11.3992 1.17135 11.3992H0.400146C1.83055 12.316 3.65215 13 5.47775 13C11.4217 13 14.8001 8.46962 14.8001 4.19922C14.8001 4.13042 14.7985 3.98642 14.7961 3.84162C14.7961 3.82722 14.8001 3.81362 14.8001 3.79922C14.8001 3.77762 14.7937 3.75682 14.7937 3.73522C14.7913 3.62642 14.7889 3.52482 14.7865 3.47202C15.4185 3.01602 15.9665 2.44722 16.4001 1.79922C15.8201 2.05682 15.1977 2.22962 14.5441 2.30802C15.2113 1.90802 16.1593 0.954419 16.4001 0.199219Z"/>
</svg>
