<svg width="15" height="17" viewBox="0 0 15 17" fill="none" xmlns="http://www.w3.org/2000/svg">
<path d="M2.3437 0.600098L3.52651 4.8751V6.9251H4.55151V4.8751L5.74995 0.600098H4.71714L4.28745 2.54541C4.16665 3.11341 4.08984 3.51711 4.05464 3.75791H4.02339C3.97299 3.42111 3.89618 3.0144 3.79058 2.5376L3.37651 0.600098H2.3437ZM6.94526 2.21416C6.59806 2.21416 6.31824 2.28201 6.10464 2.42041C5.89104 2.55801 5.73356 2.77819 5.63276 3.07979C5.53276 3.38139 5.48276 3.78062 5.48276 4.27822V4.9501C5.48276 5.4421 5.52601 5.83611 5.61401 6.13291C5.70201 6.42971 5.85053 6.64836 6.05933 6.78916C6.26813 6.92996 6.55543 7.0001 6.92183 7.0001C7.27863 7.0001 7.56226 6.93069 7.77026 6.79229C7.97826 6.65389 8.12903 6.4368 8.22183 6.1376C8.31463 5.8384 8.36089 5.4429 8.36089 4.9501V4.27822C8.36089 3.78142 8.3139 3.38367 8.2187 3.08447C8.1235 2.78607 7.97198 2.5659 7.76558 2.4251C7.55918 2.2843 7.28686 2.21416 6.94526 2.21416ZM8.90308 2.30479V5.75635C8.90308 6.18355 8.97466 6.49774 9.12026 6.69854C9.26586 6.89934 9.49199 7.0001 9.79839 7.0001C10.24 7.0001 10.5729 6.78667 10.7937 6.35947H10.8156L10.9062 6.9251H11.7203V2.30479H10.6812V5.9751C10.6412 6.0607 10.58 6.13084 10.4968 6.18604C10.4136 6.24204 10.3279 6.26885 10.2375 6.26885C10.1319 6.26885 10.0565 6.2256 10.0109 6.1376C9.96529 6.0496 9.94214 5.90181 9.94214 5.69541V2.30479H8.90308ZM6.92183 2.92979C7.06743 2.92979 7.17048 3.00587 7.22808 3.15947C7.28568 3.31227 7.31401 3.5556 7.31401 3.8876V5.32666C7.31401 5.66826 7.28568 5.91532 7.22808 6.06572C7.17048 6.21612 7.06819 6.29149 6.92339 6.29229C6.77779 6.29229 6.67703 6.21612 6.62183 6.06572C6.56583 5.91532 6.53901 5.66826 6.53901 5.32666V3.8876C6.53901 3.5564 6.56735 3.31307 6.62495 3.15947C6.68255 3.00667 6.78103 2.92979 6.92183 2.92979ZM1.79995 7.8001C0.919951 7.8001 0.199951 8.5201 0.199951 9.4001V15.0001C0.199951 15.8801 0.919951 16.6001 1.79995 16.6001H13C13.88 16.6001 14.6 15.8801 14.6 15.0001V9.4001C14.6 8.5201 13.88 7.8001 13 7.8001H1.79995ZM7.43901 9.4001H8.28433V11.4548H8.29058C8.36658 11.306 8.47558 11.1866 8.61558 11.0954C8.75558 11.0042 8.9071 10.9595 9.0687 10.9595C9.2767 10.9595 9.43936 11.0147 9.55776 11.1251C9.67616 11.2355 9.76278 11.4139 9.81558 11.6595C9.86838 11.9059 9.8937 12.2477 9.8937 12.6845V13.3017H9.89526C9.89526 13.8833 9.82433 14.3093 9.68433 14.5829C9.54433 14.8565 9.32644 14.9938 9.02964 14.9938C8.86404 14.9938 8.71408 14.9558 8.57808 14.8798C8.44208 14.8038 8.33983 14.6993 8.27183 14.5673H8.25308L8.16401 14.936H7.43901V9.4001ZM2.18901 9.59697H4.79058V10.3048H3.9187V14.936H3.06089V10.3048H2.18901V9.59697ZM11.4781 10.961C11.7789 10.961 12.0102 11.0163 12.1718 11.1267C12.3326 11.2371 12.4461 11.4095 12.5125 11.6423C12.5781 11.8759 12.6109 12.1983 12.6109 12.6095V13.2782H11.1421V13.4767C11.1421 13.7271 11.1488 13.9144 11.164 14.0392C11.1792 14.164 11.2098 14.2558 11.2562 14.3126C11.3026 14.3702 11.3742 14.3985 11.4718 14.3985C11.603 14.3985 11.6933 14.347 11.7421 14.2454C11.7909 14.1438 11.8178 13.9752 11.8218 13.7376L12.5796 13.7813C12.5836 13.8149 12.5859 13.8628 12.5859 13.922C12.5859 14.2828 12.4866 14.5522 12.289 14.7298C12.0914 14.9082 11.8139 14.997 11.4531 14.997C11.0203 14.997 10.7165 14.8604 10.5421 14.5892C10.3677 14.318 10.2812 13.8986 10.2812 13.3298V12.6485C10.2812 12.0629 10.3715 11.6353 10.5515 11.3657C10.7315 11.0961 11.0413 10.961 11.4781 10.961ZM4.52808 11.036H5.40776V13.9001C5.40776 14.0737 5.42718 14.1984 5.46558 14.272C5.50398 14.3464 5.5666 14.3829 5.6562 14.3829C5.7322 14.3829 5.80691 14.3598 5.87651 14.3126C5.94691 14.2662 5.9968 14.2065 6.0312 14.1345V11.036H6.91089V14.936H6.90933H6.22183L6.14683 14.4579H6.12651C5.93931 14.8195 5.65949 15.0001 5.28589 15.0001C5.02669 15.0001 4.83721 14.915 4.71401 14.7454C4.59081 14.5758 4.52808 14.3101 4.52808 13.9501V11.036ZM11.4593 11.5548C11.3657 11.5548 11.2963 11.5832 11.2515 11.6376C11.2067 11.6928 11.1769 11.7831 11.1625 11.9079C11.1473 12.0327 11.1406 12.2223 11.1406 12.4767V12.7563H11.7828V12.4767C11.7828 12.2263 11.7746 12.0375 11.7578 11.9079C11.7418 11.7783 11.7104 11.6873 11.6656 11.6345C11.6208 11.5817 11.5529 11.5548 11.4593 11.5548ZM8.67339 11.5829C8.58859 11.5829 8.51101 11.6165 8.43901 11.6845C8.36701 11.7525 8.31549 11.8398 8.28589 11.9454V14.1595C8.32429 14.2275 8.37429 14.2782 8.43589 14.3126C8.49749 14.3462 8.56309 14.3642 8.63589 14.3642C8.72949 14.3642 8.80256 14.3306 8.85776 14.2626C8.91296 14.1946 8.95331 14.0804 8.97651 13.9188C8.99971 13.758 9.01089 13.5341 9.01089 13.2501V12.7485C9.01089 12.4429 9.00196 12.2079 8.98276 12.0423C8.96356 11.8767 8.9292 11.7572 8.8812 11.6876C8.8324 11.618 8.76299 11.5829 8.67339 11.5829Z" fill="#7B7B7B"/>
</svg>
